<svg width="1177" height="1177" viewBox="0 0 1177 1177" fill="none" xmlns="http://www.w3.org/2000/svg">
<rect width="1177" height="1177" fill="white"/>
<path d="M311.904 623.81C256.734 623.81 202.802 607.45 156.929 576.798C111.056 546.147 75.3026 502.581 54.1897 451.61C33.0768 400.639 27.5527 344.551 38.3161 290.44C49.0795 236.33 75.6469 186.626 114.659 147.614C153.67 108.603 203.374 82.0352 257.485 71.272C311.596 60.5087 367.683 66.0329 418.654 87.1459C469.626 108.259 513.191 144.012 543.843 189.885C574.494 235.758 590.854 289.69 590.854 344.861C590.77 418.817 561.354 489.72 509.059 542.015C456.764 594.31 385.861 623.726 311.904 623.81ZM311.904 75.0942C258.55 75.0943 206.393 90.916 162.03 120.558C117.667 150.201 83.0907 192.333 62.6727 241.626C42.2548 290.92 36.9126 345.161 47.3217 397.49C57.7308 449.82 83.4236 497.888 121.151 535.615C158.879 573.343 206.947 599.036 259.276 609.445C311.606 619.854 365.847 614.511 415.141 594.093C464.434 573.675 506.566 539.098 536.208 494.736C565.85 450.373 581.672 398.216 581.672 344.861C581.591 273.339 553.143 204.77 502.57 154.196C451.996 103.623 383.426 75.175 311.904 75.0942Z" fill="#3F3D56"/>
<path d="M899.228 1113.44C850.808 1113.44 803.475 1099.08 763.216 1072.18C722.956 1045.28 691.577 1007.05 673.048 962.313C654.518 917.579 649.67 868.354 659.116 820.865C668.562 773.375 691.879 729.753 726.117 695.515C760.355 661.277 803.977 637.96 851.467 628.514C898.957 619.068 948.181 623.916 992.915 642.446C1037.65 660.975 1075.88 692.354 1102.79 732.614C1129.69 772.873 1144.04 820.206 1144.04 868.626C1143.97 933.533 1118.15 995.76 1072.26 1041.66C1026.36 1087.55 964.135 1113.37 899.228 1113.44ZM899.228 631.869C852.402 631.869 806.627 645.754 767.693 671.769C728.758 697.785 698.412 734.761 680.493 778.023C662.573 821.285 657.885 868.889 667.02 914.815C676.155 960.742 698.704 1002.93 731.815 1036.04C764.926 1069.15 807.112 1091.7 853.039 1100.83C898.965 1109.97 946.569 1105.28 989.831 1087.36C1033.09 1069.44 1070.07 1039.1 1096.08 1000.16C1122.1 961.227 1135.99 915.452 1135.99 868.626C1135.91 805.856 1110.95 745.677 1066.56 701.292C1022.18 656.906 961.998 631.94 899.228 631.869Z" fill="#3F3D56"/>
<path d="M589.677 979.264C785.339 979.264 943.954 820.649 943.954 624.987C943.954 429.325 785.339 270.71 589.677 270.71C394.015 270.71 235.4 429.325 235.4 624.987C235.4 820.649 394.015 979.264 589.677 979.264Z" fill="#FF5800"/>
<path d="M801.68 595.912H757.554C750.69 555.437 729.506 518.782 697.871 492.638C625.067 432.473 517.3 442.75 457.167 515.594C456.962 515.826 456.765 516.065 456.576 516.31C451.771 522.542 452.925 531.491 459.153 536.299C465.38 541.106 474.324 539.952 479.13 533.721C505.252 502.055 544.791 481.904 589.001 481.904C656.687 481.913 715.026 529.562 728.584 595.911H689.673C688.007 595.912 686.396 596.496 685.117 597.562C682.095 600.081 681.686 604.573 684.202 607.597L740.206 674.862C740.481 675.191 740.785 675.495 741.115 675.77C744.135 678.291 748.626 677.884 751.145 674.862L807.149 607.597C808.214 606.318 808.798 604.705 808.799 603.04C808.8 599.104 805.613 595.913 801.68 595.912Z" fill="white"/>
<path d="M718.85 712.528C712.622 707.72 703.678 708.874 698.873 715.106C678.152 740.208 649.469 757.457 617.591 763.987C540.497 779.78 465.203 730.052 449.418 652.915H488.33C492.264 652.913 495.451 649.722 495.45 645.787C495.449 644.122 494.865 642.509 493.8 641.229L437.795 573.965C435.277 570.943 430.786 570.536 427.766 573.056C427.435 573.331 427.132 573.635 426.857 573.965L370.853 641.229C368.336 644.253 368.745 648.746 371.768 651.264C373.047 652.331 374.658 652.914 376.323 652.915H420.447C427.313 693.39 448.496 730.045 480.132 756.188C552.936 816.354 660.703 806.077 720.836 733.233C721.041 733 721.237 732.761 721.426 732.516C726.232 726.284 725.078 717.335 718.85 712.528Z" fill="white"/>
<path d="M858.594 1051.19L856.986 1050.5C856.064 1050.11 834.485 1040.37 842.238 1000.08L842.378 999.64L845.252 993.235C853.692 974.355 857.819 953.834 857.333 933.162C839.989 932.761 751.083 930.241 740.676 920.585C737.19 917.361 735.083 912.917 734.795 908.18L734.264 899.708C734.102 897.114 734.474 894.513 735.356 892.067C736.238 889.621 737.612 887.382 739.393 885.487C741.175 883.592 743.326 882.082 745.713 881.05C748.101 880.017 750.676 879.485 753.277 879.485H758.397L754.773 875.345C751.87 872.033 750.271 867.78 750.272 863.378V856.37C750.273 853.129 751.14 849.948 752.785 847.155C754.43 844.362 756.792 842.059 759.627 840.485L762.537 838.869L760.864 837.196C758.517 834.851 756.856 831.909 756.063 828.689C755.27 825.469 755.373 822.093 756.363 818.928C757.353 815.762 759.19 812.928 761.677 810.731C764.163 808.535 767.204 807.06 770.469 806.467L789.503 803.007C789.9 796.18 792.694 789.712 797.394 784.742C802.095 779.771 808.4 776.618 815.198 775.836L869.605 769.567C897.748 764.552 926.432 763.284 954.908 765.796L963.24 766.531L1047.42 756.499V868.948L969.575 879.624L904.016 955.556C892.959 987.591 878.518 1018.36 860.935 1047.33L858.594 1051.19Z" fill="#FFAB80"/>
<path opacity="0.2" d="M851.462 1042.23L847.784 1040.58L860.435 1012.32L875.259 1016.89L874.074 1020.73L862.66 1017.22L851.462 1042.23Z" fill="black" fill-opacity="0.8"/>
<path d="M133 483V349.047L225.735 336.328L303.833 245.871C317.005 207.709 334.209 171.058 355.153 136.538L357.943 131.944L359.859 132.766C360.957 133.236 386.663 144.841 377.427 192.827L377.261 193.356L373.837 200.988C363.782 223.478 358.866 247.923 359.445 272.548C380.107 273.026 486.017 276.028 498.414 287.534C502.568 291.374 505.078 296.668 505.421 302.312L506.052 312.403C506.246 315.494 505.803 318.592 504.753 321.506C503.702 324.419 502.065 327.087 499.943 329.344C497.82 331.601 495.258 333.4 492.413 334.63C489.569 335.86 486.502 336.494 483.403 336.494H477.306L481.622 341.424C485.078 345.37 486.983 350.436 486.983 355.679V364.028C486.981 367.889 485.948 371.679 483.989 375.006C482.029 378.333 479.216 381.077 475.84 382.953L472.373 384.878L474.366 386.869C477.162 389.663 479.139 393.167 480.084 397.004C481.029 400.84 480.905 404.861 479.726 408.633C478.547 412.404 476.358 415.78 473.396 418.397C470.434 421.014 466.812 422.771 462.922 423.478L440.248 427.597C439.775 435.73 436.446 443.435 430.847 449.356C425.248 455.277 417.737 459.034 409.638 459.965L344.825 467.433C311.3 473.411 277.129 474.921 243.206 471.925L233.28 471.049L133 483Z" fill="#FFBD9A"/>
<path opacity="0.2" d="M367.605 141.448L371.301 143.473L355.74 171.866L340.675 165.862L342.233 161.954L353.834 166.572L367.605 141.448Z" fill="black" fill-opacity="0.6"/>
</svg>
